<?xml version="1.0" encoding="UTF-8" standalone="no"?>
<svg
   xmlns:osb="http://www.openswatchbook.org/uri/2009/osb"
   xmlns:dc="http://purl.org/dc/elements/1.1/"
   xmlns:cc="http://creativecommons.org/ns#"
   xmlns:rdf="http://www.w3.org/1999/02/22-rdf-syntax-ns#"
   xmlns:svg="http://www.w3.org/2000/svg"
   xmlns="http://www.w3.org/2000/svg"
   xmlns:xlink="http://www.w3.org/1999/xlink"
   xmlns:sodipodi="http://sodipodi.sourceforge.net/DTD/sodipodi-0.dtd"
   xmlns:inkscape="http://www.inkscape.org/namespaces/inkscape"
   width="270"
   xml:space="preserve"
   viewBox="0 0 216 144"
   height="180"
   id="svg3689"
   version="1.1"
   inkscape:version="0.48.4 r9939"
   sodipodi:docname="Integrated_circuit_icon_promo.svg"
   inkscape:export-filename="D:\ShanSong\android\android-ftdi-usb2serial-driver-package\trunk\RealICFootprint\otherfiles\promo.png"
   inkscape:export-xdpi="60"
   inkscape:export-ydpi="60"><metadata
   id="metadata3964"><rdf:RDF><cc:Work
       rdf:about=""><dc:format>image/svg+xml</dc:format><dc:type
         rdf:resource="http://purl.org/dc/dcmitype/StillImage" /><dc:title></dc:title></cc:Work></rdf:RDF></metadata><defs
   id="defs3962"><linearGradient
   inkscape:collect="always"
   id="linearGradient5866"><stop
     style="stop-color:#000000;stop-opacity:1;"
     offset="0"
     id="stop5868" /><stop
     style="stop-color:#000000;stop-opacity:0;"
     offset="1"
     id="stop5870" /></linearGradient><linearGradient
   id="linearGradient5583"
   y2="52.278"
   gradientUnits="userSpaceOnUse"
   x2="89.890999"
   y1="52.278"
   x1="75.943001">
					<stop
   stop-color="#FFAE00"
   offset="0"
   id="stop5585"
   style="stop-color:#008000;stop-opacity:1" /><stop
   style="stop-color:#e8fca7;stop-opacity:1;"
   id="stop5862"
   offset="0.14575541"
   stop-color="#FFAE00" /><stop
   stop-color="#FFAE00"
   offset="0.49858838"
   id="stop5864"
   style="stop-color:#f8fcf4;stop-opacity:1" /><stop
   id="stop5589"
   offset="0.84981394"
   stop-color="#FFAE00"
   style="stop-color:#e8fca4;stop-opacity:1" />
					<stop
   stop-color="#4C1C00"
   offset="1"
   id="stop5587"
   style="stop-color:#008000;stop-opacity:1" />
				</linearGradient><linearGradient
   inkscape:collect="always"
   id="linearGradient5370"
   osb:paint="gradient"><stop
     style="stop-color:#000000;stop-opacity:1;"
     offset="0"
     id="stop5372" /><stop
     style="stop-color:#000000;stop-opacity:0;"
     offset="1"
     id="stop5374" /></linearGradient>
		
		
		
		
		<linearGradient
   x1="59.021"
   y1="122.72"
   x2="59.021"
   gradientUnits="userSpaceOnUse"
   y2="122.72"
   id="aigrd13">
			<stop
   id="stop3798"
   offset="0"
   stop-color="#FFFFE1" />
			<stop
   id="stop3800"
   offset="1"
   stop-color="#FFB800" />
		</linearGradient>
		
		
		
		
		
		<linearGradient
   x1="-46.779999"
   y1="-14.248"
   x2="119.89"
   gradientUnits="userSpaceOnUse"
   y2="114.79"
   id="aigrd14">
			<stop
   id="stop3813"
   offset="0"
   stop-color="#fff" />
			<stop
   id="stop3815"
   offset="1"
   stop-color="#36364C" />
		</linearGradient>
		
		<linearGradient
   x1="115.06"
   y1="88.609001"
   x2="67.660004"
   gradientUnits="userSpaceOnUse"
   y2="106.86"
   id="aigrd15">
			<stop
   id="stop3820"
   offset="0"
   stop-color="#fff" />
			<stop
   id="stop3822"
   offset="1"
   stop-color="#4B4B73" />
		</linearGradient>
		
		<linearGradient
   x1="66.248001"
   y1="36.283001"
   x2="69.040001"
   gradientUnits="userSpaceOnUse"
   y2="118.63"
   id="aigrd16">
			<stop
   id="stop3827"
   offset="0"
   stop-color="#fff" />
			<stop
   id="stop3829"
   offset="1"
   stop-color="#4B4B73" />
		</linearGradient>
		
		<linearGradient
   x1="96.926003"
   y1="91.379997"
   x2="90.116997"
   gradientUnits="userSpaceOnUse"
   y2="71.005997"
   id="aigrd17">
			<stop
   id="stop3834"
   offset="0"
   stop-color="#fff" />
			<stop
   id="stop3836"
   offset=".1023"
   stop-color="#DCDCE4" />
			<stop
   id="stop3838"
   offset=".2513"
   stop-color="#B0B0C2" />
			<stop
   id="stop3840"
   offset=".4021"
   stop-color="#8C8CA5" />
			<stop
   id="stop3842"
   offset=".5524"
   stop-color="#6F6F8F" />
			<stop
   id="stop3844"
   offset=".7024"
   stop-color="#5B5B80" />
			<stop
   id="stop3846"
   offset=".8517"
   stop-color="#4F4F76" />
			<stop
   id="stop3848"
   offset="1"
   stop-color="#4B4B73" />
		</linearGradient>
		
		<linearGradient
   x1="20.673"
   y1="47.139999"
   x2="81.652"
   gradientUnits="userSpaceOnUse"
   y2="136.00999"
   id="aigrd18">
			<stop
   id="stop3853"
   offset="0"
   stop-color="#fff" />
			<stop
   id="stop3855"
   offset="1"
   stop-color="#4B4B73" />
		</linearGradient>
		
		<linearGradient
   x1="85.870003"
   y1="20.898001"
   x2="85.870003"
   gradientUnits="userSpaceOnUse"
   y2="106.56"
   id="aigrd19">
			<stop
   id="stop3860"
   offset="0"
   stop-color="#fff" />
			<stop
   id="stop3862"
   offset="1"
   stop-color="#4B4B73" />
		</linearGradient>
		
		
	<linearGradient
   inkscape:collect="always"
   xlink:href="#aigrd19"
   id="linearGradient5481"
   gradientUnits="userSpaceOnUse"
   x1="85.870003"
   y1="20.898001"
   x2="85.870003"
   y2="106.56" /><linearGradient
   inkscape:collect="always"
   xlink:href="#aigrd18"
   id="linearGradient5484"
   gradientUnits="userSpaceOnUse"
   x1="20.673"
   y1="47.139999"
   x2="81.652"
   y2="136.00999" /><linearGradient
   inkscape:collect="always"
   xlink:href="#aigrd17"
   id="linearGradient5487"
   gradientUnits="userSpaceOnUse"
   x1="96.926003"
   y1="91.379997"
   x2="90.116997"
   y2="71.005997" /><linearGradient
   inkscape:collect="always"
   xlink:href="#aigrd16"
   id="linearGradient5490"
   gradientUnits="userSpaceOnUse"
   x1="66.248001"
   y1="36.283001"
   x2="69.040001"
   y2="118.63" /><linearGradient
   inkscape:collect="always"
   xlink:href="#aigrd15"
   id="linearGradient5493"
   gradientUnits="userSpaceOnUse"
   x1="115.06"
   y1="88.609001"
   x2="67.660004"
   y2="106.86" /><linearGradient
   inkscape:collect="always"
   xlink:href="#aigrd14"
   id="linearGradient5496"
   gradientUnits="userSpaceOnUse"
   x1="-46.779999"
   y1="-14.248"
   x2="119.89"
   y2="114.79" /><linearGradient
   inkscape:collect="always"
   xlink:href="#aigrd13"
   id="linearGradient5503"
   gradientUnits="userSpaceOnUse"
   x1="59.021"
   y1="122.72"
   x2="59.021"
   y2="122.72" /><linearGradient
   inkscape:collect="always"
   xlink:href="#linearGradient5583"
   id="linearGradient5581"
   x1="2.5257678"
   y1="4.4141092"
   x2="211.74843"
   y2="140.32243"
   gradientUnits="userSpaceOnUse"
   gradientTransform="translate(0.30508458,6.2038994e-6)" /><linearGradient
   inkscape:collect="always"
   xlink:href="#aigrd20"
   id="linearGradient5591"
   gradientUnits="userSpaceOnUse"
   x1="38.502998"
   y1="111.81"
   x2="69.800003"
   y2="111.81" /><linearGradient
   inkscape:collect="always"
   xlink:href="#aigrd21"
   id="linearGradient5593"
   gradientUnits="userSpaceOnUse"
   gradientTransform="matrix(0.9993,0.037,-0.037,0.9993,-1.43,1.8062)"
   x1="53.174999"
   y1="107.92"
   x2="83.903"
   y2="107.92" /><linearGradient
   inkscape:collect="always"
   xlink:href="#aigrd22"
   id="linearGradient5595"
   gradientUnits="userSpaceOnUse"
   gradientTransform="matrix(0.9993,0.037,-0.037,0.9993,-1.43,1.8062)"
   x1="52.446999"
   y1="107.14"
   x2="65.050003"
   y2="107.14" /><linearGradient
   inkscape:collect="always"
   xlink:href="#aigrd23"
   id="linearGradient5597"
   gradientUnits="userSpaceOnUse"
   gradientTransform="matrix(0.9993,0.037,-0.037,0.9993,-1.43,1.8062)"
   x1="47.275002"
   y1="118.82"
   x2="62.182999"
   y2="118.82" /><linearGradient
   inkscape:collect="always"
   xlink:href="#aigrd24"
   id="linearGradient5599"
   gradientUnits="userSpaceOnUse"
   x1="18.796"
   y1="94.095001"
   x2="50.092999"
   y2="94.095001" /><linearGradient
   inkscape:collect="always"
   xlink:href="#aigrd25"
   id="linearGradient5601"
   gradientUnits="userSpaceOnUse"
   gradientTransform="matrix(0.9993,0.037,-0.037,0.9993,-1.43,1.8062)"
   x1="32.826"
   y1="90.940002"
   x2="63.554001"
   y2="90.940002" /><linearGradient
   inkscape:collect="always"
   xlink:href="#aigrd26"
   id="linearGradient5603"
   gradientUnits="userSpaceOnUse"
   gradientTransform="matrix(0.9993,0.037,-0.037,0.9993,-1.43,1.8062)"
   x1="32.098"
   y1="90.161003"
   x2="44.701"
   y2="90.161003" /><linearGradient
   inkscape:collect="always"
   xlink:href="#aigrd27"
   id="linearGradient5605"
   gradientUnits="userSpaceOnUse"
   gradientTransform="matrix(0.9993,0.037,-0.037,0.9993,-1.43,1.8062)"
   x1="26.926001"
   y1="101.84"
   x2="41.834"
   y2="101.84" /><linearGradient
   inkscape:collect="always"
   xlink:href="#aigrd28"
   id="linearGradient5607"
   gradientUnits="userSpaceOnUse"
   x1="0.209"
   y1="76.534"
   x2="31.506"
   y2="76.534" />
			
			<linearGradient
   id="aigrd29"
   y2="74.080002"
   gradientUnits="userSpaceOnUse"
   x2="44.328999"
   gradientTransform="matrix(0.9993,0.037,-0.037,0.9993,-1.43,1.8062)"
   y1="74.080002"
   x1="13.602">
				<stop
   stop-color="#FFAE00"
   offset="0"
   id="stop3938" />
				<stop
   stop-color="#4C1C00"
   offset="1"
   id="stop3940" />
			</linearGradient>
			
			
			<linearGradient
   id="aigrd30"
   y2="73.301003"
   gradientUnits="userSpaceOnUse"
   x2="25.476999"
   gradientTransform="matrix(0.9993,0.037,-0.037,0.9993,-1.43,1.8062)"
   y1="73.301003"
   x1="12.874">
				<stop
   stop-color="#FFFFE1"
   offset="0"
   id="stop3947" />
				<stop
   stop-color="#FFB800"
   offset="1"
   id="stop3949" />
			</linearGradient>
			
			<linearGradient
   id="aigrd31"
   y2="84.977997"
   gradientUnits="userSpaceOnUse"
   x2="22.608999"
   gradientTransform="matrix(0.9993,0.037,-0.037,0.9993,-1.43,1.8062)"
   y1="84.977997"
   x1="7.7017002">
				<stop
   stop-color="#FFFFE1"
   offset="0"
   id="stop3954" />
				<stop
   stop-color="#FFB800"
   offset="1"
   id="stop3956" />
			</linearGradient>
			
		<linearGradient
   inkscape:collect="always"
   xlink:href="#aigrd31"
   id="linearGradient5625"
   gradientUnits="userSpaceOnUse"
   gradientTransform="matrix(0.9993,0.037,-0.037,0.9993,-1.43,1.8062)"
   x1="7.7017002"
   y1="84.977997"
   x2="22.608999"
   y2="84.977997" /><linearGradient
   inkscape:collect="always"
   xlink:href="#aigrd30"
   id="linearGradient5628"
   gradientUnits="userSpaceOnUse"
   gradientTransform="matrix(0.9993,0.037,-0.037,0.9993,-1.43,1.8062)"
   x1="12.874"
   y1="73.301003"
   x2="25.476999"
   y2="73.301003" /><linearGradient
   inkscape:collect="always"
   xlink:href="#aigrd29"
   id="linearGradient5632"
   gradientUnits="userSpaceOnUse"
   gradientTransform="matrix(0.9993,0.037,-0.037,0.9993,-1.43,1.8062)"
   x1="13.602"
   y1="74.080002"
   x2="44.328999"
   y2="74.080002" /><linearGradient
   inkscape:collect="always"
   xlink:href="#aigrd1"
   id="linearGradient5673"
   gradientUnits="userSpaceOnUse"
   gradientTransform="matrix(0.9988,-0.05,0.05,0.9988,4.8774,1.0598)"
   x1="110.93"
   y1="93.891998"
   x2="125.84"
   y2="93.891998" /><linearGradient
   inkscape:collect="always"
   xlink:href="#aigrd2"
   id="linearGradient5675"
   gradientUnits="userSpaceOnUse"
   gradientTransform="matrix(1.0736,-0.0537,0.0541,1.082,2.6032,6.2865)"
   x1="100.85"
   y1="74.259003"
   x2="113.88"
   y2="74.259003" /><linearGradient
   inkscape:collect="always"
   xlink:href="#aigrd3"
   id="linearGradient5677"
   gradientUnits="userSpaceOnUse"
   x1="121.48"
   y1="86.498001"
   x2="135.42999"
   y2="86.498001" /><linearGradient
   inkscape:collect="always"
   xlink:href="#aigrd4"
   id="linearGradient5679"
   gradientUnits="userSpaceOnUse"
   x1="107.4"
   y1="81.198997"
   x2="135.42999"
   y2="81.198997" /><linearGradient
   inkscape:collect="always"
   xlink:href="#aigrd5"
   id="linearGradient5681"
   gradientUnits="userSpaceOnUse"
   gradientTransform="matrix(0.9988,-0.05,0.05,0.9988,4.8774,1.0598)"
   x1="88.788002"
   y1="75.485001"
   x2="103.69"
   y2="75.485001" /><linearGradient
   inkscape:collect="always"
   xlink:href="#aigrd6"
   id="linearGradient5683"
   gradientUnits="userSpaceOnUse"
   gradientTransform="matrix(1.0736,-0.0537,0.0541,1.082,2.6032,6.2865)"
   x1="80.245003"
   y1="57.27"
   x2="93.281998"
   y2="57.27" /><linearGradient
   inkscape:collect="always"
   xlink:href="#aigrd7"
   id="linearGradient5685"
   gradientUnits="userSpaceOnUse"
   x1="98.441002"
   y1="69.223"
   x2="112.39"
   y2="69.223" /><linearGradient
   inkscape:collect="always"
   xlink:href="#aigrd8"
   id="linearGradient5687"
   gradientUnits="userSpaceOnUse"
   x1="84.361"
   y1="63.923"
   x2="112.39"
   y2="63.923" /><linearGradient
   inkscape:collect="always"
   xlink:href="#aigrd9"
   id="linearGradient5689"
   gradientUnits="userSpaceOnUse"
   gradientTransform="matrix(0.9988,-0.05,0.05,0.9988,4.8774,1.0598)"
   x1="67.166"
   y1="57.439999"
   x2="82.072998"
   y2="57.439999" /><linearGradient
   inkscape:collect="always"
   xlink:href="#aigrd10"
   id="linearGradient5691"
   gradientUnits="userSpaceOnUse"
   gradientTransform="matrix(1.0736,-0.0537,0.0541,1.082,2.6032,6.2865)"
   x1="60.129002"
   y1="40.611"
   x2="73.166"
   y2="40.611" /><linearGradient
   inkscape:collect="always"
   xlink:href="#aigrd11"
   id="linearGradient5693"
   gradientUnits="userSpaceOnUse"
   x1="75.943001"
   y1="52.278"
   x2="89.890999"
   y2="52.278" /><linearGradient
   inkscape:collect="always"
   xlink:href="#aigrd12"
   id="linearGradient5695"
   gradientUnits="userSpaceOnUse"
   x1="61.862"
   y1="46.98"
   x2="89.893997"
   y2="46.98" />
			
			
			
		<linearGradient
   inkscape:collect="always"
   xlink:href="#linearGradient5866"
   id="linearGradient5872"
   x1="99.405902"
   y1="33.999032"
   x2="193.33933"
   y2="33.999032"
   gradientUnits="userSpaceOnUse" /></defs><sodipodi:namedview
   pagecolor="#ffffff"
   bordercolor="#666666"
   borderopacity="1"
   objecttolerance="10"
   gridtolerance="10"
   guidetolerance="10"
   inkscape:pageopacity="0"
   inkscape:pageshadow="2"
   inkscape:window-width="1680"
   inkscape:window-height="990"
   id="namedview3960"
   showgrid="false"
   inkscape:zoom="1.3111111"
   inkscape:cx="-7.9784907"
   inkscape:cy="130.6145"
   inkscape:window-x="-4"
   inkscape:window-y="-4"
   inkscape:window-maximized="1"
   inkscape:current-layer="svg3689" />
	<rect
   style="fill:url(#linearGradient5581);fill-opacity:1;stroke:#000000;stroke-width:0;stroke-miterlimit:0;stroke-opacity:1;stroke-dasharray:none"
   id="rect3141"
   width="216.00093"
   height="144.30605"
   x="0.30462575"
   y="-0.00049093476"
   ry="12.021351" /><path
   style="fill:none;stroke-width:0"
   inkscape:connector-curvature="0"
   id="path3693"
   d="M 144,144 H 0 V 0 h 144 v 144 z" /><g
   id="g5751"
   transform="translate(0.30508475,9.7627119)"><g
     id="g3699"
     style="fill:#ffffff;stroke-width:0">
				<linearGradient
   x1="110.93"
   y1="93.891998"
   gradientTransform="matrix(0.9988,-0.05,0.05,0.9988,4.8774,1.0598)"
   x2="125.84"
   gradientUnits="userSpaceOnUse"
   y2="93.891998"
   id="aigrd1">
					<stop
   id="stop3702"
   offset="0"
   stop-color="#FFFFE1" />
					<stop
   id="stop3704"
   offset="1"
   stop-color="#FFB800" />
				</linearGradient>
				<path
   style="fill:url(#linearGradient5673)"
   inkscape:connector-curvature="0"
   id="path3706"
   d="m 120.22,86.378 9.936,8.158 5.239,-3.188 -10.042,-8.04 -5.133,3.069 z" />
				<linearGradient
   x1="100.85"
   y1="74.259003"
   gradientTransform="matrix(1.0736,-0.0537,0.0541,1.082,2.6032,6.2865)"
   x2="113.88"
   gradientUnits="userSpaceOnUse"
   y2="74.259003"
   id="aigrd2">
					<stop
   id="stop3709"
   offset="0"
   stop-color="#FFFFE1" />
					<stop
   id="stop3711"
   offset="1"
   stop-color="#FFB800" />
				</linearGradient>
				<path
   style="fill:url(#linearGradient5675)"
   inkscape:connector-curvature="0"
   id="path3713"
   d="m 116.96,86.945 -0.744,-1.843 -2.153,-20.509 14.126,11.214 -0.32,17.209 1.854,4.127 -12.762,-10.198 z" />
				<path
   inkscape:connector-curvature="0"
   id="path3715"
   d="m 107.4,67.259 14.082,11.236 6.8,-2.682 -14.231,-11.07 -6.65,2.516 z" />
				<linearGradient
   x1="121.48"
   y1="86.498001"
   x2="135.42999"
   gradientUnits="userSpaceOnUse"
   y2="86.498001"
   id="aigrd3">
					<stop
   id="stop3718"
   offset="0"
   stop-color="#FFAE00" />
					<stop
   id="stop3720"
   offset="1"
   stop-color="#4C1C00" />
				</linearGradient>
				<path
   style="fill:url(#linearGradient5677)"
   inkscape:connector-curvature="0"
   id="path3722"
   d="m 121.48,78.495 6.7,-2.643 1.283,16.424 0.77,1.9 5.168,-3.144 0.026,2.261 -5.71,3.85 -2.283,-4.014 -1.478,-13.98 -4.47,1.793 -0.007,-2.447 z" />
				<linearGradient
   x1="107.4"
   y1="81.198997"
   x2="135.42999"
   gradientUnits="userSpaceOnUse"
   y2="81.198997"
   id="aigrd4">
					<stop
   id="stop3725"
   offset="0"
   stop-color="#FFAE00" />
					<stop
   id="stop3727"
   offset="1"
   stop-color="#4C1C00" />
				</linearGradient>
				<path
   style="fill:url(#linearGradient5679)"
   inkscape:connector-curvature="0"
   id="path3729"
   d="m 114.31,61.738 11.355,8.451 5.268,4.076 0.236,3.461 c 0,0 0.435,5.572 0.55,7.045 0.964,0.771 3.677,2.943 3.677,2.943 l 2.865,2.23 0.017,4.846 -8.706,5.87 -14.971,-11.964 -1.172,-2.902 c 0,0 -0.956,-9.102 -1.156,-11.014 -1.429,-1.141 -10.541,-8.412 -10.541,-8.412 l 9.291,-3.514 3.287,-1.117 z m 21.09,29.295 -0.224,0.136 -6.188,-4.953 -0.808,-10.338 v -0.026 l 0.098,-0.038 -4.354,-3.386 -9.868,-7.834 0.019,0.173 -0.028,-0.022 -6.65,2.516 7.575,6.044 1.238,11.799 0.744,1.843 12.762,10.198 5.71,-3.85 -0.026,-2.261 z" />
			</g><g
     id="g3731"
     style="fill:#ffffff;stroke-width:0">
				<linearGradient
   x1="88.788002"
   y1="75.485001"
   gradientTransform="matrix(0.9988,-0.05,0.05,0.9988,4.8774,1.0598)"
   x2="103.69"
   gradientUnits="userSpaceOnUse"
   y2="75.485001"
   id="aigrd5">
					<stop
   id="stop3734"
   offset="0"
   stop-color="#FFFFE1" />
					<stop
   id="stop3736"
   offset="1"
   stop-color="#FFB800" />
				</linearGradient>
				<path
   style="fill:url(#linearGradient5681)"
   inkscape:connector-curvature="0"
   id="path3738"
   d="m 97.187,69.102 9.936,8.158 5.24,-3.187 -10.042,-8.041 -5.134,3.069 z" />
				<linearGradient
   x1="80.245003"
   y1="57.27"
   gradientTransform="matrix(1.0736,-0.0537,0.0541,1.082,2.6032,6.2865)"
   x2="93.281998"
   gradientUnits="userSpaceOnUse"
   y2="57.27"
   id="aigrd6">
					<stop
   id="stop3741"
   offset="0"
   stop-color="#FFFFE1" />
					<stop
   id="stop3743"
   offset="1"
   stop-color="#FFB800" />
				</linearGradient>
				<path
   style="fill:url(#linearGradient5683)"
   inkscape:connector-curvature="0"
   id="path3745"
   d="M 93.917,69.669 93.172,67.826 91.02,47.317 105.145,58.531 104.826,75.739 106.68,79.867 93.927,69.669 z" />
				<path
   inkscape:connector-curvature="0"
   id="path3747"
   d="m 84.359,49.983 14.082,11.236 6.8,-2.681 -14.23,-11.07 -6.651,2.515 z" />
				<linearGradient
   x1="98.441002"
   y1="69.223"
   x2="112.39"
   gradientUnits="userSpaceOnUse"
   y2="69.223"
   id="aigrd7">
					<stop
   id="stop3750"
   offset="0"
   stop-color="#FFAE00" />
					<stop
   id="stop3752"
   offset="1"
   stop-color="#4C1C00" />
				</linearGradient>
				<path
   style="fill:url(#linearGradient5685)"
   inkscape:connector-curvature="0"
   id="path3754"
   d="m 98.441,61.219 6.701,-2.643 1.28,16.424 0.77,1.901 5.168,-3.144 0.025,2.26 -5.709,3.851 -2.283,-4.014 -1.478,-13.982 -4.47,1.795 -0.008,-2.448 z" />
				<linearGradient
   x1="84.361"
   y1="63.923"
   x2="112.39"
   gradientUnits="userSpaceOnUse"
   y2="63.923"
   id="aigrd8">
					<stop
   id="stop3757"
   offset="0"
   stop-color="#FFAE00" />
					<stop
   id="stop3759"
   offset="1"
   stop-color="#4C1C00" />
				</linearGradient>
				<path
   style="fill:url(#linearGradient5687)"
   inkscape:connector-curvature="0"
   id="path3761"
   d="m 91.274,44.462 11.355,8.451 5.269,4.076 0.235,3.461 c 0,0 0.436,5.572 0.551,7.043 0.963,0.772 3.677,2.944 3.677,2.944 l 2.864,2.229 0.018,4.848 -8.706,5.869 -14.974,-11.962 -1.172,-2.902 c 0,0 -0.956,-9.103 -1.156,-11.015 -1.43,-1.14 -10.542,-8.412 -10.542,-8.412 l 9.291,-3.514 3.287,-1.116 z m 21.086,29.296 -0.225,0.136 -6.187,-4.954 -0.808,-10.338 v -0.026 l 0.097,-0.038 -4.353,-3.386 -9.868,-7.834 0.019,0.173 -0.028,-0.022 -6.651,2.515 7.575,6.044 1.238,11.799 0.745,1.843 12.762,10.199 5.709,-3.851 -0.025,-2.26 z" />
			</g><g
     id="g3763"
     style="fill:#ffffff;stroke-width:0">
				<linearGradient
   x1="67.166"
   y1="57.439999"
   gradientTransform="matrix(0.9988,-0.05,0.05,0.9988,4.8774,1.0598)"
   x2="82.072998"
   gradientUnits="userSpaceOnUse"
   y2="57.439999"
   id="aigrd9">
					<stop
   id="stop3766"
   offset="0"
   stop-color="#FFFFE1" />
					<stop
   id="stop3768"
   offset="1"
   stop-color="#FFB800" />
				</linearGradient>
				<path
   style="fill:url(#linearGradient5689)"
   inkscape:connector-curvature="0"
   id="path3770"
   d="m 74.689,52.158 9.936,8.158 5.24,-3.188 -10.042,-8.04 -5.134,3.069 z" />
				<linearGradient
   x1="60.129002"
   y1="40.611"
   gradientTransform="matrix(1.0736,-0.0537,0.0541,1.082,2.6032,6.2865)"
   x2="73.166"
   gradientUnits="userSpaceOnUse"
   y2="40.611"
   id="aigrd10">
					<stop
   id="stop3773"
   offset="0"
   stop-color="#FFFFE1" />
					<stop
   id="stop3775"
   offset="1"
   stop-color="#FFB800" />
				</linearGradient>
				<path
   style="fill:url(#linearGradient5691)"
   inkscape:connector-curvature="0"
   id="path3777"
   d="M 71.419,52.726 70.675,50.883 68.523,30.374 82.648,41.588 82.328,58.796 84.182,62.923 71.419,52.726 z" />
				<path
   inkscape:connector-curvature="0"
   id="path3779"
   d="m 61.861,33.04 14.082,11.235 6.8,-2.681 -14.23,-11.07 -6.651,2.516 z" />
				<linearGradient
   x1="75.943001"
   y1="52.278"
   x2="89.890999"
   gradientUnits="userSpaceOnUse"
   y2="52.278"
   id="aigrd11">
					<stop
   id="stop3782"
   offset="0"
   stop-color="#FFAE00" />
					<stop
   id="stop3784"
   offset="1"
   stop-color="#4C1C00" />
				</linearGradient>
				<path
   style="fill:url(#linearGradient5693)"
   inkscape:connector-curvature="0"
   id="path3786"
   d="m 75.943,44.275 6.701,-2.642 1.283,16.424 0.77,1.901 5.168,-3.144 0.026,2.26 -5.71,3.85 -2.283,-4.013 -1.478,-13.982 -4.47,1.794 -0.008,-2.448 z" />
				<linearGradient
   x1="61.862"
   y1="46.98"
   x2="89.893997"
   gradientUnits="userSpaceOnUse"
   y2="46.98"
   id="aigrd12">
					<stop
   id="stop3789"
   offset="0"
   stop-color="#FFAE00" />
					<stop
   id="stop3791"
   offset="1"
   stop-color="#4C1C00" />
				</linearGradient>
				<path
   style="fill:url(#linearGradient5695)"
   inkscape:connector-curvature="0"
   id="path3793"
   d="m 68.776,27.519 11.355,8.451 5.269,4.076 0.236,3.461 c 0,0 0.435,5.572 0.549,7.044 0.965,0.771 3.678,2.944 3.678,2.944 l 2.864,2.229 0.018,4.846 -8.706,5.87 -14.972,-11.963 -1.171,-2.902 c 0,0 -0.956,-9.103 -1.156,-11.015 -1.429,-1.14 -10.542,-8.411 -10.542,-8.411 l 9.292,-3.514 3.287,-1.117 z M 89.865,56.813 89.64,56.95 83.454,51.996 82.645,41.658 v -0.026 l 0.097,-0.038 -4.353,-3.386 -9.868,-7.834 0.018,0.173 -0.028,-0.022 -6.651,2.516 7.575,6.044 1.239,11.799 0.744,1.843 12.762,10.198 5.71,-3.85 -0.026,-2.26 z" />
			</g><path
     d="m 14.394,42.281 c 0,1.741 0.064,24.125 0.064,25.429 0.96,0.876 57.135,51.722 58.678,53.132 1.836,-1.001 43.896,-23.151 45.43,-23.984 0,-1.752 -0.104,-24.117 -0.104,-25.428 C 117.492,70.553 58.19,26.226 56.641,24.818 54.81,25.828 15.914,41.443 14.395,42.281 z"
     id="path3795"
     inkscape:connector-curvature="0"
     style="fill:#ffffff;stroke-width:0" /><path
     d="M 59.021,122.72"
     id="path3802"
     inkscape:connector-curvature="0"
     style="fill:url(#linearGradient5503);stroke-width:0" /><path
     d="M 20.399,54.962"
     id="path3804"
     inkscape:connector-curvature="0"
     style="fill:#ffffff;stroke:#000000;stroke-width:1" /><path
     d="M 71.144,99.011"
     id="path3806"
     inkscape:connector-curvature="0"
     style="fill:#ffffff;stroke:#000000;stroke-width:1" /><path
     d="M 117.31,71.981"
     id="path3808"
     inkscape:connector-curvature="0"
     style="fill:#ffffff;stroke:#000000;stroke-width:1" /><path
     d="M 66.882,26.915"
     id="path3810"
     inkscape:connector-curvature="0"
     style="fill:#ffffff;stroke:#000000;stroke-width:1" /><path
     d="m 59.132,21.975 c 1.323,1.115 21.635,16.364 36.467,27.499 20.898,15.688 24.934,18.731 25.399,19.152 0.788,0.713 1.239,1.741 1.245,2.804 l 0.104,25.428 c 0.006,1.407 -0.73,2.664 -1.975,3.322 l -45.428,23.982 c -1.405,0.742 -3.181,0.538 -4.359,-0.529 L 11.908,70.503 C 11.119,69.789 10.679,68.775 10.676,67.71 L 10.612,42.281 c -0.004,-1.382 0.747,-2.646 1.958,-3.313 0.795,-0.438 5.201,-2.251 19.938,-8.258 9.413,-3.836 21.127,-8.612 22.358,-9.23 l -0.052,0.028 c 1.365,-0.728 3.137,-0.53 4.319,0.468 z M 14.394,42.281 c 0,0.141 0.064,22.524 0.064,25.429 0.96,0.876 57.135,51.722 58.678,53.132 1.836,-1.001 43.896,-23.151 45.43,-23.984 0,-1.752 -0.104,-24.117 -0.104,-25.428 C 117.492,70.553 58.19,26.226 56.641,24.818 54.81,25.828 15.914,41.443 14.395,42.281 z"
     id="path3817"
     inkscape:connector-curvature="0"
     style="fill:url(#linearGradient5496);stroke-width:0" /><path
     d="M 75.171,99.623 75.136,118.312 116.99,96.551 V 73.537 l -12.977,6.604 -0.022,7.913 -13.865,7.328 0.008,-8.178 -12.666,6.443 c 0,0 -1.465,1.039 -1.896,2.812 -0.43,1.774 -0.398,3.166 -0.398,3.166 z"
     id="path3824"
     inkscape:connector-curvature="0"
     style="fill:url(#linearGradient5493);stroke-width:0" /><path
     d="m 56.64,26.086 60.35,45.716 -13.322,7.138 c 0,0 -7.119,-5.336 -8.018,-5.971 -0.898,-0.634 -5.568,-4.916 -12.281,-1.365 -5.288,3.07 -1.023,7.506 -1.023,7.506 l 7.506,6.652 -12.398,6.279 c 0,0 -2.023,0.68 -3.316,0.563 -1.295,-0.121 -2.875,-1.428 -2.875,-1.428 L 16.926,42.704 56.638,26.086 z"
     id="path3831"
     inkscape:connector-curvature="0"
     style="fill:url(#linearGradient5490);stroke-width:0" /><path
     d="m 84.32,73.239 h -0.002 c -1.023,0.596 -1.592,1.24 -1.689,1.92 -0.012,0.08 -0.018,0.162 -0.018,0.246 0,0.825 0.544,1.754 1.052,2.346 0.132,0.115 8.528,7.498 8.528,7.498 0,0 0.034,4.709 0.049,6.708 2.043,-1.079 9.098,-4.808 9.908,-5.235 0.001,-0.908 0.008,-5.78 0.01,-6.549 -0.693,-0.516 -7.709,-5.741 -7.709,-5.741 C 94.42,74.389 94.037,74.117 94.037,74.117 92.412,72.941 89.033,70.493 84.32,73.24 z"
     id="path3850"
     inkscape:connector-curvature="0"
     style="fill:url(#linearGradient5487);stroke-width:0" /><path
     d="M 72.562,98.98 72.597,117.67 15.661,66.362 V 43.971 l 54.684,49.032 c 0,0 1.416,1.037 1.832,2.811 0.416,1.775 0.386,3.167 0.386,3.167 z"
     id="path3857"
     inkscape:connector-curvature="0"
     style="fill:url(#linearGradient5484);stroke-width:0" /><path
     d="M 66.252,56.538 C 81.693,46.138 56.138,31.913 56.64,27.495 l 58.459,44.485 -11.09,5.595 -8.359,-6.312 c 0,0 -6.068,-4.599 -13.135,-0.853 -6.994,3.924 -1.535,9.723 -1.535,9.723 l 6.652,5.629 -12.725,6.156 c 0,0 -25.187,-24.247 -8.655,-35.381 z"
     id="path3864"
     inkscape:connector-curvature="0"
     style="fill:url(#linearGradient5481);stroke-width:0" /><g
     id="g3868"
     style="fill:#ffffff;stroke-width:0">
				<linearGradient
   x1="38.502998"
   y1="111.81"
   x2="69.800003"
   gradientUnits="userSpaceOnUse"
   y2="111.81"
   id="aigrd20">
					<stop
   id="stop3871"
   offset="0"
   stop-color="#FFAE00" />
					<stop
   id="stop3873"
   offset="1"
   stop-color="#4C1C00" />
				</linearGradient>
				<path
   style="fill:url(#linearGradient5591)"
   inkscape:connector-curvature="0"
   id="path3875"
   d="m 55.067,89.538 14.733,13.502 -0.22,5.152 c 0,0 -5.348,2.645 -5.553,2.746 -0.378,2.389 -2.358,14.881 -2.358,14.881 0,0 -1.297,2.084 -1.384,2.223 -0.06,0.111 -0.646,1.199 -0.646,1.199 l -9.795,4.848 -11.341,-11.096 0.327,-5.436 6.213,-3.059 C 45.012,112.83 44.684,94.574 44.684,94.574 l 8.649,-4.197 1.734,-0.842 z m -0.496,3.394 12.339,11.308 -0.092,2.155 c -2.143,1.061 -4.635,2.293 -5.363,2.653 -0.271,1.71 -2.498,15.761 -2.498,15.761 l -1.128,1.813 -0.259,0.481 -7.181,3.554 -8.977,-8.783 0.152,-2.498 c 0,0 4.651,-2.296 5.401,-2.66 0.142,-0.203 0.93,-1.344 0.93,-1.344 l -0.343,-19.034 7.019,-3.406 z" />
				<linearGradient
   x1="53.174999"
   y1="107.92"
   gradientTransform="matrix(0.9993,0.037,-0.037,0.9993,-1.43,1.8062)"
   x2="83.903"
   gradientUnits="userSpaceOnUse"
   y2="107.92"
   id="aigrd21">
					<stop
   id="stop3878"
   offset="0"
   stop-color="#FFAE00" />
					<stop
   id="stop3880"
   offset="1"
   stop-color="#4C1C00" />
				</linearGradient>
				<path
   style="fill:url(#linearGradient5593)"
   inkscape:connector-curvature="0"
   id="path3882"
   d="m 47.552,96.338 0.343,19.034 c 0,0 -0.789,1.141 -0.93,1.344 -0.75,0.364 -5.401,2.66 -5.401,2.66 l -0.152,2.498 8.977,8.783 7.181,-3.554 0.259,-0.481 1.128,-1.813 2.498,-15.761 c 0.728,-0.36 3.221,-1.593 5.363,-2.653 L 66.91,104.24 54.571,92.932 47.552,96.338 z" />
				<path
   inkscape:connector-curvature="0"
   id="path3884"
   d="m 47.552,96.338 12.188,11.45 7.17,-3.548 -12.339,-11.308 -7.019,3.406 z" />
				<linearGradient
   x1="52.446999"
   y1="107.14"
   gradientTransform="matrix(0.9993,0.037,-0.037,0.9993,-1.43,1.8062)"
   x2="65.050003"
   gradientUnits="userSpaceOnUse"
   y2="107.14"
   id="aigrd22">
					<stop
   id="stop3887"
   offset="0"
   stop-color="#FFFFE1" />
					<stop
   id="stop3889"
   offset="1"
   stop-color="#FFB800" />
				</linearGradient>
				<path
   style="fill:url(#linearGradient5595)"
   inkscape:connector-curvature="0"
   id="path3891"
   d="m 46.922,116.77 0.973,-1.402 -0.343,-19.034 12.188,11.45 -2.591,16.348 -0.939,1.51 -9.288,-8.871 z" />
				<linearGradient
   x1="47.275002"
   y1="118.82"
   gradientTransform="matrix(0.9993,0.037,-0.037,0.9993,-1.43,1.8062)"
   x2="62.182999"
   gradientUnits="userSpaceOnUse"
   y2="118.82"
   id="aigrd23">
					<stop
   id="stop3894"
   offset="0"
   stop-color="#FFFFE1" />
					<stop
   id="stop3896"
   offset="1"
   stop-color="#FFB800" />
				</linearGradient>
				<path
   style="fill:url(#linearGradient5597)"
   inkscape:connector-curvature="0"
   id="path3898"
   d="m 41.524,119.38 9.189,8.991 5.497,-2.721 -9.305,-8.882 -5.38,2.611 z" />
				<linearGradient
   x1="18.796"
   y1="94.095001"
   x2="50.092999"
   gradientUnits="userSpaceOnUse"
   y2="94.095001"
   id="aigrd24">
					<stop
   id="stop3901"
   offset="0"
   stop-color="#FFAE00" />
					<stop
   id="stop3903"
   offset="1"
   stop-color="#4C1C00" />
				</linearGradient>
				<path
   style="fill:url(#linearGradient5599)"
   inkscape:connector-curvature="0"
   id="path3905"
   d="m 35.36,71.819 14.733,13.503 -0.22,5.151 c 0,0 -5.348,2.646 -5.553,2.747 -0.378,2.388 -2.358,14.88 -2.358,14.88 0,0 -1.297,2.086 -1.384,2.225 -0.06,0.109 -0.645,1.198 -0.645,1.198 l -9.796,4.847 -11.34,-11.095 0.326,-5.436 c 0,0 5.169,-2.546 6.213,-3.06 -0.03,-1.668 -0.359,-19.923 -0.359,-19.923 l 8.649,-4.197 1.734,-0.841 z m -0.496,3.393 12.339,11.309 -0.093,2.154 c -2.142,1.061 -4.635,2.294 -5.363,2.654 -0.271,1.709 -2.498,15.76 -2.498,15.76 l -1.128,1.813 -0.259,0.48 -7.181,3.554 -8.977,-8.783 0.151,-2.498 c 0,0 4.651,-2.295 5.401,-2.66 0.142,-0.203 0.93,-1.344 0.93,-1.344 l -0.342,-19.033 7.018,-3.406 z" />
				<linearGradient
   x1="32.826"
   y1="90.940002"
   gradientTransform="matrix(0.9993,0.037,-0.037,0.9993,-1.43,1.8062)"
   x2="63.554001"
   gradientUnits="userSpaceOnUse"
   y2="90.940002"
   id="aigrd25">
					<stop
   id="stop3908"
   offset="0"
   stop-color="#FFAE00" />
					<stop
   id="stop3910"
   offset="1"
   stop-color="#4C1C00" />
				</linearGradient>
				<path
   style="fill:url(#linearGradient5601)"
   inkscape:connector-curvature="0"
   id="path3912"
   d="m 27.846,78.618 0.342,19.033 c 0,0 -0.788,1.141 -0.93,1.344 -0.75,0.365 -5.401,2.66 -5.401,2.66 l -0.151,2.498 8.977,8.783 7.181,-3.554 0.259,-0.48 1.128,-1.813 c 0,0 2.227,-14.051 2.498,-15.76 0.728,-0.36 3.221,-1.594 5.363,-2.654 l 0.093,-2.154 -12.341,-11.32 -7.018,3.406 z" />
				<path
   inkscape:connector-curvature="0"
   id="path3914"
   d="M 27.846,78.618 40.033,90.067 47.203,86.52 34.864,75.212 27.846,78.618 z" />
				<linearGradient
   x1="32.098"
   y1="90.161003"
   gradientTransform="matrix(0.9993,0.037,-0.037,0.9993,-1.43,1.8062)"
   x2="44.701"
   gradientUnits="userSpaceOnUse"
   y2="90.161003"
   id="aigrd26">
					<stop
   id="stop3917"
   offset="0"
   stop-color="#FFFFE1" />
					<stop
   id="stop3919"
   offset="1"
   stop-color="#FFB800" />
				</linearGradient>
				<path
   style="fill:url(#linearGradient5603)"
   inkscape:connector-curvature="0"
   id="path3921"
   d="m 27.214,99.055 0.973,-1.403 -0.342,-19.033 12.187,11.449 -2.591,16.348 -0.939,1.511 -9.288,-8.871 z" />
				<linearGradient
   x1="26.926001"
   y1="101.84"
   gradientTransform="matrix(0.9993,0.037,-0.037,0.9993,-1.43,1.8062)"
   x2="41.834"
   gradientUnits="userSpaceOnUse"
   y2="101.84"
   id="aigrd27">
					<stop
   id="stop3924"
   offset="0"
   stop-color="#FFFFE1" />
					<stop
   id="stop3926"
   offset="1"
   stop-color="#FFB800" />
				</linearGradient>
				<path
   style="fill:url(#linearGradient5605)"
   inkscape:connector-curvature="0"
   id="path3928"
   d="m 21.817,101.65 9.189,8.991 5.497,-2.72 -9.306,-8.882 -5.38,2.61 z" />
				<linearGradient
   x1="0.20900001"
   y1="76.533997"
   x2="31.506001"
   gradientUnits="userSpaceOnUse"
   y2="76.533997"
   id="aigrd28">
					<stop
   id="stop3931"
   offset="0"
   stop-color="#FFAE00" />
					<stop
   id="stop3933"
   offset="1"
   stop-color="#4C1C00" />
				</linearGradient>
				<path
   style="fill:url(#linearGradient5607)"
   inkscape:connector-curvature="0"
   id="path3935"
   d="m 16.773,54.258 14.733,13.503 -0.22,5.151 c 0,0 -5.348,2.646 -5.553,2.748 -0.379,2.388 -2.358,14.879 -2.358,14.879 0,0 -1.297,2.086 -1.384,2.225 -0.059,0.109 -0.646,1.199 -0.646,1.199 L 11.55,98.81 0.209,87.716 0.535,82.28 c 0,0 5.169,-2.546 6.214,-3.06 C 6.719,77.552 6.39,59.297 6.39,59.297 l 8.648,-4.197 1.734,-0.842 z m -0.496,3.393 12.339,11.309 -0.092,2.155 c -2.142,1.06 -4.635,2.294 -5.363,2.653 -0.271,1.709 -2.498,15.761 -2.498,15.761 l -1.128,1.813 -0.259,0.481 -7.181,3.553 -8.977,-8.783 0.151,-2.498 c 0,0 4.651,-2.296 5.401,-2.659 C 8.812,81.232 9.6,80.091 9.6,80.091 L 9.259,61.057 16.277,57.651 z" />
			</g><path
     style="fill:url(#linearGradient5632);stroke-width:0"
     inkscape:connector-curvature="0"
     id="path3942"
     d="m 9.259,61.057 0.342,19.034 c 0,0 -0.789,1.141 -0.93,1.345 -0.75,0.363 -5.401,2.659 -5.401,2.659 l -0.151,2.498 8.977,8.783 7.181,-3.553 0.259,-0.481 1.128,-1.813 c 0,0 2.226,-14.052 2.498,-15.761 0.728,-0.359 3.222,-1.593 5.363,-2.653 L 28.617,68.96 16.277,57.651 9.259,61.057 z" /><path
     inkscape:connector-curvature="0"
     id="path3944"
     d="M 9.259,61.057 21.447,72.506 28.617,68.96 16.277,57.651 9.259,61.057 z"
     style="fill:#ffffff;stroke-width:0" /><path
     style="fill:url(#linearGradient5628);stroke-width:0"
     inkscape:connector-curvature="0"
     id="path3951"
     d="M 8.628,81.495 9.601,80.091 9.259,61.057 21.447,72.506 18.856,88.855 17.916,90.366 8.628,81.495 z" /><path
     style="fill:url(#linearGradient5625);stroke-width:0"
     inkscape:connector-curvature="0"
     id="path3958"
     d="m 3.23,84.095 9.189,8.99 5.496,-2.719 -9.305,-8.883 -5.38,2.611 z" /></g>
<text
   xml:space="preserve"
   style="font-size:29.79702186999999800px;font-style:normal;font-weight:normal;line-height:125%;letter-spacing:0px;word-spacing:0px;fill:#333366;fill-opacity:1;stroke:none;font-family:Sans;stroke-width:0;stroke-miterlimit:0;stroke-dasharray:none"
   x="89.113495"
   y="27.348841"
   id="text3131"
   sodipodi:linespacing="125%"
   transform="scale(1.1360415,0.88024951)"><tspan
     sodipodi:role="line"
     x="89.113495"
     y="27.348841"
     id="tspan3135"
     style="font-style:normal;font-variant:normal;font-weight:normal;font-stretch:normal;fill:#333366;fill-opacity:1;stroke:none;font-family:Bernard MT Condensed;-inkscape-font-specification:Bernard MT Condensed;stroke-width:0;stroke-miterlimit:0;stroke-dasharray:none">Real IC</tspan><tspan
     sodipodi:role="line"
     x="89.113495"
     y="64.595123"
     id="tspan3137"
     style="font-style:normal;font-variant:normal;font-weight:normal;font-stretch:normal;fill:#333366;fill-opacity:1;stroke:none;font-family:Bernard MT Condensed;-inkscape-font-specification:Bernard MT Condensed;stroke-width:0;stroke-miterlimit:0;stroke-dasharray:none">footprint</tspan></text>
<path
   style="fill:none;stroke:#000000;stroke-width:0.0381356;stroke-miterlimit:4;stroke-opacity:1;stroke-dasharray:none"
   d=""
   id="path3145"
   inkscape:connector-curvature="0"
   transform="scale(0.8,0.8)" /></svg>