<?xml version="1.0" encoding="UTF-8" standalone="no"?>
<!-- Generator: Adobe Illustrator 16.0.0, SVG Export Plug-In . SVG Version: 6.00 Build 0)  -->

<svg
   xmlns:dc="http://purl.org/dc/elements/1.1/"
   xmlns:cc="http://creativecommons.org/ns#"
   xmlns:rdf="http://www.w3.org/1999/02/22-rdf-syntax-ns#"
   xmlns:svg="http://www.w3.org/2000/svg"
   xmlns="http://www.w3.org/2000/svg"
   xmlns:sodipodi="http://sodipodi.sourceforge.net/DTD/sodipodi-0.dtd"
   xmlns:inkscape="http://www.inkscape.org/namespaces/inkscape"
   version="1.1"
   id="Layer_1"
   x="0px"
   y="0px"
   width="500px"
   height="500px"
   viewBox="0 0 500 500"
   enable-background="new 0 0 500 500"
   xml:space="preserve"
   inkscape:version="0.48.4 r9939"
   sodipodi:docname="rotate_CCW_icon.svg"><metadata
   id="metadata9"><rdf:RDF><cc:Work
       rdf:about=""><dc:format>image/svg+xml</dc:format><dc:type
         rdf:resource="http://purl.org/dc/dcmitype/StillImage" /></cc:Work></rdf:RDF></metadata><defs
   id="defs7" /><sodipodi:namedview
   pagecolor="#ffffff"
   bordercolor="#666666"
   borderopacity="1"
   objecttolerance="10"
   gridtolerance="10"
   guidetolerance="10"
   inkscape:pageopacity="0"
   inkscape:pageshadow="2"
   inkscape:window-width="1680"
   inkscape:window-height="1020"
   id="namedview5"
   showgrid="false"
   inkscape:zoom="0.472"
   inkscape:cx="250"
   inkscape:cy="250"
   inkscape:window-x="1676"
   inkscape:window-y="-4"
   inkscape:window-maximized="1"
   inkscape:current-layer="Layer_1" />
<path
   clip-rule="evenodd"
   d="M 218.477,228.102 113.719,150.06 c -12.082,-12.085 -12.082,-24.259 0,-36.342 L 218.477,35.674 c 3.274,-2.359 7.359,-3.725 11.723,-3.725 10.992,0 19.803,8.536 19.803,19.083 v 35.429 c 105.388,0.276 190.794,85.585 190.794,190.797 0,105.396 -85.672,190.793 -191.248,190.793 -98.03,0 -178.809,-73.498 -189.977,-168.169 -0.092,-0.275 -0.367,-3.187 -0.367,-4.455 0,-9.992 8.181,-18.169 18.261,-18.169 h 45.793 c 14.993,0 26.349,10.355 27.893,18.986 8.811,46.156 49.519,80.954 98.397,80.954 55.329,0 100.127,-44.701 100.127,-99.94 0,-55.064 -44.523,-99.667 -99.674,-99.941 v 35.437 c 0,10.541 -8.811,19.076 -19.803,19.076 -4.363,0 -8.448,-1.359 -11.722,-3.728 z"
   id="path3"
   inkscape:connector-curvature="0"
   style="fill:#010101;fill-rule:evenodd" />
</svg>