<?xml version="1.0" encoding="UTF-8" standalone="no"?>
<!-- Generator: Adobe Illustrator 16.0.0, SVG Export Plug-In . SVG Version: 6.00 Build 0)  -->

<svg
   xmlns:dc="http://purl.org/dc/elements/1.1/"
   xmlns:cc="http://creativecommons.org/ns#"
   xmlns:rdf="http://www.w3.org/1999/02/22-rdf-syntax-ns#"
   xmlns:svg="http://www.w3.org/2000/svg"
   xmlns="http://www.w3.org/2000/svg"
   xmlns:sodipodi="http://sodipodi.sourceforge.net/DTD/sodipodi-0.dtd"
   xmlns:inkscape="http://www.inkscape.org/namespaces/inkscape"
   version="1.1"
   id="Layer_1"
   x="0px"
   y="0px"
   width="24px"
   height="24px"
   viewBox="0 0 24 24"
   enable-background="new 0 0 24 24"
   xml:space="preserve"
   inkscape:version="0.48.4 r9939"
   sodipodi:docname="unlock_icon.svg"
   inkscape:export-filename="D:\ShanSong\android\android-ftdi-usb2serial-driver-package\trunk\RealICFootprint\otherfiles\unlock_icon.png"
   inkscape:export-xdpi="120"
   inkscape:export-ydpi="120"><metadata
   id="metadata9"><rdf:RDF><cc:Work
       rdf:about=""><dc:format>image/svg+xml</dc:format><dc:type
         rdf:resource="http://purl.org/dc/dcmitype/StillImage" /><dc:title></dc:title></cc:Work></rdf:RDF></metadata><defs
   id="defs7" /><sodipodi:namedview
   pagecolor="#ffffff"
   bordercolor="#666666"
   borderopacity="1"
   objecttolerance="10"
   gridtolerance="10"
   guidetolerance="10"
   inkscape:pageopacity="0"
   inkscape:pageshadow="2"
   inkscape:window-width="1680"
   inkscape:window-height="990"
   id="namedview5"
   showgrid="false"
   inkscape:zoom="19.666667"
   inkscape:cx="-3.4856135"
   inkscape:cy="6.660603"
   inkscape:window-x="-4"
   inkscape:window-y="-4"
   inkscape:window-maximized="1"
   inkscape:current-layer="Layer_1" />
<path
   d="M 12,0 C 8.3150205,0 5.3017502,2.8482282 5.03125,6.46875 l 3.03125,0 C 8.322819,4.510611 9.9734263,3 12,3 c 2.207,0 4,1.79 4,4 l 0,3 c -3.920803,-0.012809 -8.5049308,0.01557 -12.03125,0 -1.087258,0.01829 -1.9375,0.906431 -1.9375,2 l 0,10 c 0,1.105 0.86475,2 1.96875,2 l 16,0 c 1.103,0 2,-0.896 2,-2 l 0,-10 c 0,-1.106 -0.896,-2 -2,-2 l -1,0 0,-3 C 19,3.132 15.863,0 12,0 z"
   id="path3"
   inkscape:connector-curvature="0"
   sodipodi:nodetypes="sccssccssssssscss" />
</svg>